<?xml version="1.0" standalone="no"?>
<!DOCTYPE svg PUBLIC "-//W3C//DTD SVG 20010904//EN"
 "http://www.w3.org/TR/2001/REC-SVG-20010904/DTD/svg10.dtd">
<svg version="1.0" xmlns="http://www.w3.org/2000/svg"
 width="923.000000pt" height="923.000000pt" viewBox="0 0 923.000000 923.000000"
 preserveAspectRatio="xMidYMid meet">
<metadata>
Created by potrace 1.11, written by Peter Selinger 2001-2013
</metadata>
<g transform="translate(0.000000,923.000000) scale(0.100000,-0.100000)"
fill="#000000" stroke="none">
<path d="M2230 7236 c-171 -29 -271 -159 -257 -332 14 -161 96 -255 247 -284
30 -6 62 -18 72 -27 29 -26 76 -109 181 -316 109 -214 139 -260 169 -255 53 8
45 58 -33 225 -90 191 -122 260 -146 313 -14 30 -27 58 -29 61 -2 3 20 30 47
60 28 30 63 79 77 109 23 47 27 68 27 145 0 73 -4 99 -23 136 -41 84 -132 154
-214 165 -18 3 -37 6 -43 8 -5 1 -39 -2 -75 -8z"/>
<path d="M7200 7142 c-99 -37 -163 -91 -202 -171 -19 -38 -23 -62 -23 -141 l1
-95 52 -97 52 -96 -41 -99 c-22 -54 -46 -111 -54 -128 -71 -160 -145 -363
-145 -400 0 -26 40 -28 62 -3 30 35 106 191 193 401 l78 187 83 1 c46 1 87 2
92 3 4 1 25 5 47 10 143 28 245 178 233 344 -15 207 -238 354 -428 284z"/>
<path d="M4647 6454 c-1 -1 -54 -5 -118 -8 -64 -4 -127 -9 -140 -11 -13 -2
-49 -6 -79 -9 -179 -20 -479 -92 -605 -145 -11 -5 -72 -30 -135 -56 -535 -223
-1007 -597 -1338 -1061 -214 -301 -387 -666 -502 -1059 -22 -77 -42 -149 -44
-160 -2 -11 -9 -38 -14 -60 -6 -22 -13 -60 -17 -85 -3 -25 -8 -56 -11 -70 -2
-14 -6 -104 -9 -202 -3 -133 -2 -177 8 -180 6 -3 1412 -4 3122 -4 l3110 1 -1
41 c-9 324 -52 565 -160 890 -66 200 -190 479 -269 604 -14 22 -25 42 -25 45
0 6 -177 271 -193 287 -7 7 -30 36 -51 63 -113 142 -313 348 -472 485 -67 57
-242 184 -323 234 -359 222 -800 381 -1221 441 -94 14 -502 28 -513 19z m343
-89 c58 -4 114 -8 125 -9 20 -2 125 -19 135 -21 3 -1 25 -5 50 -9 37 -6 97
-20 255 -60 197 -49 560 -209 729 -320 38 -25 71 -46 73 -46 7 0 263 -193 313
-236 88 -76 328 -321 408 -417 301 -361 513 -779 626 -1232 50 -204 69 -319
70 -422 1 -56 -2 -105 -7 -109 -10 -10 -5994 -11 -6031 -1 l-29 8 7 77 c3 43
13 113 21 156 9 44 17 92 20 107 26 148 117 462 170 584 7 17 23 55 35 85 96
236 298 563 490 790 98 118 336 347 453 439 510 397 1044 602 1662 637 61 4
111 7 112 8 5 3 223 -3 313 -9z"/>
<path d="M3033 5001 c-275 -75 -440 -292 -429 -564 8 -196 105 -371 261 -472
163 -105 403 -110 575 -12 58 33 163 131 195 182 123 194 126 433 8 628 -65
108 -162 187 -281 229 -85 29 -236 34 -329 9z"/>
<path d="M6240 5008 c-128 -20 -218 -65 -305 -152 -103 -104 -157 -237 -157
-391 -1 -172 48 -301 154 -408 144 -146 352 -210 528 -162 180 49 312 151 382
296 19 41 39 88 43 104 4 17 9 39 12 50 13 48 11 185 -3 245 -19 82 -65 175
-117 238 -63 75 -187 151 -274 167 -16 3 -40 7 -54 10 -53 10 -156 12 -209 3z"/>
<path d="M5231 2788 c-123 -13 -216 -67 -269 -157 -24 -40 -27 -56 -27 -131 0
-70 4 -93 23 -130 47 -88 106 -121 329 -179 161 -42 214 -64 250 -103 81 -86
55 -241 -50 -302 -53 -31 -155 -50 -221 -40 -143 19 -223 86 -251 208 l-12 51
-49 0 -49 0 3 -45 c10 -180 147 -295 364 -305 155 -8 282 35 353 118 93 109
85 316 -15 400 -55 47 -105 67 -272 108 -165 41 -215 61 -257 100 -100 94 -41
262 107 305 74 22 192 15 248 -14 71 -36 124 -115 124 -183 0 -20 25 -28 69
-21 l33 5 -5 47 c-22 185 -191 292 -426 268z"/>
<path d="M2457 2755 c-2 -5 -3 -248 -3 -540 l1 -530 52 -3 53 -3 2 476 3 477
175 -476 175 -476 50 0 50 0 49 133 c26 72 76 209 111 302 34 94 88 239 119
324 31 84 61 161 66 170 6 10 10 -153 10 -457 l0 -473 52 3 53 3 0 538 c0 351
-3 537 -10 538 -49 4 -137 4 -144 -1 -7 -5 -93 -234 -313 -840 -17 -47 -34
-88 -37 -92 -3 -4 -84 204 -180 463 -96 258 -179 470 -185 470 -53 6 -146 2
-149 -6z"/>
<path d="M4157 2755 c-2 -5 -3 -248 -2 -540 l0 -530 53 -3 52 -3 -2 542 -3
543 -47 1 c-26 0 -49 -4 -51 -10z"/>
<path d="M6634 2763 c-18 -3 -53 -86 -232 -541 l-211 -537 51 -3 c27 -2 52 -1
55 2 3 3 33 78 67 168 l61 163 245 3 245 2 62 -167 61 -168 56 -3 55 -3 -13
38 c-31 86 -397 1038 -401 1041 -5 5 -77 9 -101 5z m44 -651 c-111 -1 -203 0
-206 3 -4 4 140 405 185 515 l15 35 103 -275 103 -275 -200 -3z"/>
</g>
</svg>
