<?xml version="1.0" encoding="UTF-8" standalone="no"?>
<!DOCTYPE svg PUBLIC "-//W3C//DTD SVG 1.1//EN" "http://www.w3.org/Graphics/SVG/1.1/DTD/svg11.dtd">
<svg version="1.1" xmlns="http://www.w3.org/2000/svg" xmlns:xlink="http://www.w3.org/1999/xlink" preserveAspectRatio="xMidYMid meet" viewBox="0 0 842 595" width="842" height="595"><defs><path d="" id="d3oiDQUSgU"></path><path d="M747.34 658.93C744.83 658.93 744.83 662.73 747.34 662.73C747.34 662.73 747.34 662.73 747.34 662.73C748.96 660.2 748.96 658.93 747.34 658.93Z" id="b30KUVzOyT"></path><path d="M747.34 709.79C747.34 709.79 747.34 709.79 747.34 709.79C748.96 707.26 748.96 705.99 747.34 705.99C744.83 705.99 744.83 709.79 747.34 709.79Z" id="as2SW9fmK"></path><path d="M747.34 709.79C747.34 709.79 747.34 709.79 747.34 709.79C748.96 707.26 748.96 705.99 747.34 705.99C744.83 705.99 744.83 709.79 747.34 709.79Z" id="b610Tgdp0y"></path><path d="M783.83 129.1C785.94 127.7 782.63 116.88 775.32 114.27C768.92 111.97 762.7 117.18 759.19 114.27C756.79 112.38 759.3 109.57 756.69 106.06C755.29 104.26 752.09 103.06 745.67 100.85C741.77 99.45 729.85 95.94 733.75 97.14C731.74 93.84 728.54 89.24 723.54 84.52C720.83 82.02 714.62 76.11 705.71 72.61C704.71 72.2 682.97 64.1 669.14 72.61C664.04 75.81 657.23 83.02 657.23 83.02C657.23 83.02 657.23 83.02 657.23 83.02C657.23 83.02 656.23 91.54 651.32 94.14C648.42 95.75 646.41 93.84 637.69 93.44C634.19 93.24 629.48 93.05 624.07 94.14C620.97 94.84 613.86 96.34 608.74 101.56C604.74 105.76 605.15 108.96 601.93 109.77C598.93 110.46 597.42 107.96 591.72 106.06C583.51 103.26 575.79 104.86 573.89 105.37C570.48 106.16 564.58 107.57 561.16 112.07C558.66 115.38 559.07 118.19 556.96 118.78C554.46 119.39 553.06 115.88 548.45 114.27C543.03 112.38 536.23 114.18 532.32 117.28C528.62 120.28 526.31 126 527.42 129.1C535.43 153.64 772.31 126.2 782.13 129.1C782.33 129.2 783.24 129.5 783.83 129.1Z" id="fisdggSKn"></path><path d="M586.8 116.84C602.14 112.64 603.43 103.22 603.93 99.82C604.34 97.11 606.34 83.29 586.8 77.57C572.19 73.27 556.56 76.77 550.05 72.37C544.55 68.76 554.35 65.66 550.05 59.94C544.84 53.13 524.61 49.93 515.69 48.63C503.67 46.73 496.97 49.03 488.74 46.53C482.14 44.53 481.73 42.12 477.73 39.31C465.3 30.49 434.85 29.1 431.15 28.99C408.62 28.1 379.76 31.71 372.25 38.81C370.75 40.22 369.55 42.22 364.94 43.42C358.34 45.12 351.62 43.53 342.91 43.42C326.98 43.32 314.76 48.53 311.06 50.13C293.93 57.44 295.93 70.97 295.93 70.97C295.93 70.97 295.93 70.97 295.93 70.97C295.93 70.97 281.61 76.27 275.1 81.29C264.98 89.1 271.39 98.12 272.69 99.92C273.49 101.01 280.2 110.03 300.94 115.44C309.56 117.64 317.46 118.45 321.27 118.75C389.68 125.15 506.78 116.34 562.37 118.75C566.38 118.95 577.29 119.45 586.8 116.84Z" id="c6BRWfqVo"></path><path d="" id="d71n8aapOh"></path><path d="" id="a3Sy38W7L"></path></defs><g><g><g><use xlink:href="#d3oiDQUSgU" opacity="1" fill="#000000" fill-opacity="1"></use><g><use xlink:href="#d3oiDQUSgU" opacity="1" fill-opacity="0" stroke="#000000" stroke-width="1" stroke-opacity="0"></use></g></g><g><use xlink:href="#b30KUVzOyT" opacity="1" fill="#ffffff" fill-opacity="1"></use><g><use xlink:href="#b30KUVzOyT" opacity="1" fill-opacity="0" stroke="#000000" stroke-width="1" stroke-opacity="0"></use></g></g><g><use xlink:href="#as2SW9fmK" opacity="1" fill="#ffffff" fill-opacity="1"></use><g><use xlink:href="#as2SW9fmK" opacity="1" fill-opacity="0" stroke="#000000" stroke-width="1" stroke-opacity="0"></use></g></g><g><use xlink:href="#b610Tgdp0y" opacity="1" fill="#000000" fill-opacity="0"></use><g><use xlink:href="#b610Tgdp0y" opacity="1" fill-opacity="0" stroke="#000000" stroke-width="1" stroke-opacity="0"></use></g></g><g><use xlink:href="#fisdggSKn" opacity="1" fill="#4471b7" fill-opacity="1"></use><g><use xlink:href="#fisdggSKn" opacity="1" fill-opacity="0" stroke="#000000" stroke-width="1" stroke-opacity="0"></use></g></g><g><use xlink:href="#c6BRWfqVo" opacity="1" fill="#4471b7" fill-opacity="1"></use><g><use xlink:href="#c6BRWfqVo" opacity="1" fill-opacity="0" stroke="#000000" stroke-width="1" stroke-opacity="0"></use></g></g><g><use xlink:href="#d71n8aapOh" opacity="1" fill="#000000" fill-opacity="1"></use><g><use xlink:href="#d71n8aapOh" opacity="1" fill-opacity="0" stroke="#000000" stroke-width="1" stroke-opacity="0"></use></g></g><g><use xlink:href="#a3Sy38W7L" opacity="1" fill="#000000" fill-opacity="1"></use><g><use xlink:href="#a3Sy38W7L" opacity="1" fill-opacity="0" stroke="#000000" stroke-width="1" stroke-opacity="0"></use></g></g></g></g></svg>