<?xml version="1.0" encoding="UTF-8" standalone="no"?>
<!DOCTYPE svg PUBLIC "-//W3C//DTD SVG 1.1//EN" "http://www.w3.org/Graphics/SVG/1.1/DTD/svg11.dtd">
<svg version="1.1" xmlns="http://www.w3.org/2000/svg" xmlns:xlink="http://www.w3.org/1999/xlink" preserveAspectRatio="xMidYMid meet" viewBox="0 0 842 595" width="842" height="595"><defs><path d="M747.34 662.73C747.34 662.73 747.34 662.73 747.34 662.73C748.96 660.2 748.96 658.93 747.34 658.93C744.83 658.93 744.83 662.73 747.34 662.73Z" id="kTmxbZYm4"></path><path d="M747.34 662.73C747.34 662.73 747.34 662.73 747.34 662.73C748.96 660.2 748.96 658.93 747.34 658.93C744.83 658.93 744.83 662.73 747.34 662.73Z" id="b4bw0rMTQ"></path><path d="M209.36 198.64L209.36 198.64" id="d5gNhWHmA0"></path><path d="M209.36 198.64L209.36 198.64" id="bd8K0LNDc"></path><path d="M0 569.96C0.5 569.96 1 569.96 1.5 569.96C5.8 569.96 10.11 569.96 14.41 569.96C15.91 569.96 16.71 569.16 16.71 567.56C16.71 563.56 16.71 559.46 16.71 555.46C16.71 554.35 17.01 553.85 18.21 553.96C19.61 554.06 20.61 553.56 21.71 552.65C23.02 551.65 24.91 550.65 26.52 551.55C27.62 552.15 29.32 552.05 29.91 553.56C30.02 553.76 30.62 553.95 31.02 553.95C34.32 554.06 34.32 554.06 34.32 557.26C34.32 564.46 34.32 571.65 34.32 578.87C34.32 579.56 34.63 580.87 35.02 580.87C36.02 581.06 37.13 581.26 38.22 580.56C39.13 579.96 39.02 579.37 39.02 578.67C39.02 576.17 39.02 573.76 39.02 571.06C40.63 571.06 42.02 571.06 43.52 571.06C43.63 570.06 43.72 569.15 43.82 568.26C44.72 568.26 45.52 568.26 46.32 568.26C48.23 568.26 48.23 568.26 48.33 570.15C48.33 570.46 48.63 570.76 48.73 570.96C48.93 570.65 49.23 570.36 49.23 570.06C49.23 566.06 49.23 561.95 49.23 557.95C49.23 557.65 49.23 557.35 49.23 557.06C49.43 557.06 49.52 556.95 49.63 556.95C51.63 556.85 51.63 556.85 51.93 554.85C51.93 554.56 52.43 554.06 52.82 554.06C53.82 553.95 54.93 554.06 55.93 553.95C56.73 553.85 57.52 553.56 58.23 553.25C58.43 553.15 58.54 552.65 58.54 552.35C58.54 550.54 58.54 548.65 58.53 546.75C59.13 546.84 59.63 546.84 60.23 546.95C60.23 548.75 60.23 550.45 60.23 552.15C60.23 553.75 60.33 553.95 61.93 554.06C62.73 554.15 63.23 554.45 63.13 555.35C63.04 555.85 63.23 556.35 63.33 556.85C64.23 556.85 65.04 556.95 65.93 556.95C65.93 559.45 65.93 561.85 65.93 564.36C66.83 564.36 67.74 564.36 68.74 564.36C68.74 563.75 68.74 563.25 68.74 562.75C68.74 554.75 68.73 546.75 68.73 538.74C68.73 537.14 68.73 537.14 70.34 537.14C76.84 537.14 83.24 537.14 89.74 537.14C90.95 537.14 91.34 536.73 91.24 535.64C91.15 534.73 91.24 533.84 91.24 532.73C92.95 532.73 94.65 532.73 96.24 532.73C96.45 532.73 96.74 533.14 96.84 533.44C96.95 533.73 96.84 534.14 96.84 534.53C96.85 548.75 96.85 562.95 96.85 577.06C96.85 577.56 97.05 577.95 97.15 578.45C97.35 578.45 97.45 578.36 97.65 578.36C97.65 556.95 97.65 535.53 97.64 514.12C99.64 513.53 99.64 513.53 99.64 511.53C99.64 510.33 99.64 509.03 99.64 507.82C100.34 507.73 100.84 507.73 101.54 507.62C101.54 506.12 101.54 504.62 101.54 503.03C109.34 503.03 117.05 503.03 124.86 503.03C124.86 504.53 124.86 506.03 124.86 507.62C125.45 507.72 126.06 507.72 126.75 507.82C126.75 509.92 126.75 511.92 126.76 514.12C127.36 514.22 127.86 514.33 128.45 514.33C128.45 515.03 128.56 515.62 128.56 516.33C128.56 526.33 128.56 536.33 128.56 546.34C128.56 547.44 128.76 547.94 129.96 547.84C130.96 547.74 132.06 547.84 133.26 547.84C133.26 525.42 133.26 503.22 133.25 480.81C137.06 480.81 140.66 480.81 144.45 480.81C144.45 479.51 144.45 478.2 144.45 477C144.45 476.61 144.86 476.31 144.96 476C145.16 475.61 145.36 475.2 145.36 474.81C145.46 473.61 145.36 472.5 145.36 471.31C145.36 470.61 145.56 470.31 146.36 470.31C147.16 470.31 147.36 470.7 147.25 471.31C147.25 472.81 147.25 474.31 147.25 475.9C147.97 475.9 148.47 475.9 149.06 475.9C149.06 474.5 149.06 473.11 149.06 471.7C149.06 471.4 149.36 471 149.56 470.7C149.75 471 149.97 471.4 149.97 471.81C150.06 473.11 149.97 474.5 149.97 476C150.56 476 150.97 476.11 151.47 476.11C154.97 476.11 158.47 476.11 161.86 476.11C162.77 476.11 163.17 476.4 163.06 477.31C162.97 478.41 163.06 479.5 163.06 480.81C166.47 480.81 169.77 480.81 173.17 480.8C173.27 481.7 173.37 482.5 173.37 483.31C173.37 504.22 173.37 525.22 173.37 546.13C173.37 547.94 173.37 547.94 175.18 547.94C178.48 547.94 181.89 547.94 185.39 547.93C185.39 529.63 185.38 511.41 185.38 493C186.58 492.91 187.78 492.81 189.19 492.71C189.19 491.5 189.19 490.41 189.19 489.21C189.19 487.3 189.19 487.3 190.98 487.3C197.69 487.3 204.39 487.3 211.08 487.3C211.49 487.3 211.8 487.3 212.3 487.3C212.39 488.41 212.39 489.41 212.49 490.41C212.49 490.8 212.59 491.3 212.69 491.71C213.09 492.6 213.69 492.91 214.69 492.8C215.8 492.71 216.89 492.8 217.89 492.8C219.8 492.8 220.3 492.21 220.3 490.3C220.3 476.6 220.29 462.8 220.29 449.08C220.29 447.08 220.29 447.08 222.19 447.08C224.39 447.08 225.1 446.49 224.99 444.28C224.88 442.98 225.19 441.98 226.1 441.08C226.19 440.97 226.29 440.88 226.29 440.88C227.89 440.88 227.6 439.78 227.6 438.78C227.6 437.78 227.49 436.68 228.38 435.88C228.49 435.78 228.49 435.47 228.49 435.18C228.49 434.08 228.38 432.88 229.38 431.97C229.59 431.78 229.49 431.28 229.49 430.97C229.49 428.17 229.49 425.38 229.49 422.58C229.49 421.87 229.49 421.17 230.49 421.17C231.09 421.17 231.49 420.77 231.4 420.08C231.4 419.77 231.49 419.47 231.4 419.27C230.99 417.97 232.09 417.47 232.69 416.77C233.19 416.17 233.79 415.57 234.49 415.27C235.09 414.97 236.09 414.77 236.59 415.07C237.79 415.77 238.99 416.77 239.99 417.77C240.29 418.07 240.19 418.86 240.19 419.36C240.1 420.57 240.29 421.47 241.9 421.36C241.9 423.57 241.9 425.58 241.9 427.67C241.9 428.67 241.9 429.58 241.9 430.58C241.9 431.38 241.6 432.17 242.6 432.67C242.7 432.67 242.7 432.77 242.7 432.88C242.8 435.08 244.4 437.08 243.8 439.38C243.6 440.28 243.99 440.68 244.99 441.08C245.99 441.38 246.6 442.47 246.7 443.58C246.7 444.18 246.7 444.68 246.71 445.28C246.71 446.49 247.6 447.38 248.8 447.28C250 447.18 250.4 447.58 250.4 448.78C250.3 451.18 250.4 453.58 250.4 455.99C250.4 457.58 250.5 457.69 252.21 457.69C254.01 457.69 255.8 457.69 257.71 457.68C257.71 458.49 257.8 459.29 257.8 459.99C257.8 491.4 257.81 522.82 257.81 554.23C257.81 556.23 257.92 556.32 259.92 556.32C260.22 556.32 260.52 556.32 260.72 556.32C261.81 556.43 262.22 555.93 262.22 554.82C262.22 546.23 262.22 537.62 262.22 529.01C262.22 527.32 262.22 527.32 264.02 527.32C265.42 527.32 266.92 527.32 268.32 527.32C270.22 527.32 270.72 526.71 270.72 524.91C270.72 503.71 270.71 482.6 270.71 461.38C270.71 460.79 270.71 460.29 270.71 459.58C271.32 459.58 271.71 459.58 272.11 459.58C277.82 459.58 283.52 459.58 289.22 459.58C291.22 459.58 291.22 459.58 291.22 457.58C291.21 453.68 291.21 449.77 291.21 445.88C291.21 445.27 291.21 444.68 291.21 443.88C293.12 443.88 294.92 443.88 296.82 443.87C296.82 438.18 296.82 432.66 296.82 427.16C297.82 427.07 298.62 427.07 299.52 426.96C299.52 426.46 299.52 426.07 299.52 425.66C299.52 419.66 299.51 413.57 299.51 407.55C299.51 406.55 299.82 406.26 300.82 406.26C302.82 406.35 304.82 406.26 306.82 406.26C308.23 406.26 309.62 406.55 310.82 405.35C310.82 401.96 310.82 398.35 310.82 394.75C310.82 393.65 311.12 393.24 312.23 393.35C313.82 393.46 315.53 393.35 317.12 393.35C319.23 393.45 320.73 392.45 322.03 391.05C322.12 390.95 322.23 390.74 322.33 390.74C324.03 390.45 325.62 389.65 327.43 389.65C328.33 389.65 329.23 389.04 330.03 388.54C330.33 388.35 330.33 387.54 330.33 387.04C330.33 384.35 330.42 381.65 330.33 379.04C330.33 377.94 330.73 377.54 331.73 377.63C332.42 377.74 333.23 377.63 334.14 377.63C334.14 381.35 334.14 385.04 334.14 388.65C335.03 388.94 336.03 388.35 336.53 389.54C336.53 389.65 337.14 389.65 337.43 389.65C338.64 389.74 339.84 389.65 341.03 389.85C341.73 389.94 342.44 390.54 343.23 390.74C344.53 391.85 345.53 393.45 347.73 393.24C349.64 393.04 351.64 393.24 353.64 393.24C354.54 393.24 354.84 393.54 354.84 394.45C354.84 397.85 354.84 401.25 354.84 404.65C354.84 406.04 355.04 406.26 356.45 406.26C359.25 406.25 362.05 406.25 364.84 406.25C365.84 406.25 366.15 406.54 366.15 407.54C366.15 413.56 366.15 419.45 366.15 425.46C366.15 425.96 366.15 426.36 366.15 426.96C367.06 426.96 367.85 426.96 368.85 426.96C368.85 432.56 368.85 438.17 368.85 443.76C370.76 443.76 372.45 443.76 374.45 443.76C374.46 480.68 374.46 517.5 374.47 554.41C375.47 554.41 376.27 554.41 377.27 554.41C377.27 527.5 377.26 500.5 377.26 473.48C377.87 473.48 378.26 473.37 378.66 473.37C382.46 473.37 386.17 473.37 389.96 473.37C391.07 473.37 391.37 472.87 391.46 471.97C391.46 471.58 391.46 471.28 391.46 470.87C391.46 463.37 391.46 455.77 391.46 448.26C391.46 447.76 391.46 447.26 391.46 446.67C392.06 446.56 392.56 446.56 393.17 446.47C393.17 455.17 393.17 463.78 393.17 472.28C393.67 472.67 394.17 472.97 394.87 473.47C394.97 472.78 395.17 472.08 395.17 471.47C395.17 467.08 395.17 462.56 395.17 458.17C395.17 457.77 395.17 457.27 395.17 456.77C395.76 456.67 396.37 456.67 397.07 456.56C397.07 461.87 397.07 467.08 397.07 472.17C398.76 474.08 400.87 473.17 402.77 473.28C403.07 473.28 403.48 472.47 403.57 472.08C403.67 471.08 403.57 470.08 403.57 468.97C405.78 468.97 407.78 468.97 409.98 468.97C409.98 470.08 409.98 471.28 409.98 472.08C411.28 473.97 413.07 473.17 414.78 473.47C414.78 474.08 414.78 474.67 414.78 475.28C414.78 501.08 414.79 526.8 414.79 552.61C414.79 553.21 414.99 553.71 415.19 554.3C415.38 553.71 415.69 553.11 415.69 552.61C415.68 527.3 415.68 501.89 415.68 476.58C415.67 459.77 415.67 442.95 415.78 426.25C415.78 424.36 415.87 424.36 417.78 424.36C419.58 424.36 421.28 424.36 423.08 424.36C423.97 424.36 424.28 424.05 424.17 423.15C424.17 422.65 424.17 422.15 424.17 421.75C424.17 421.05 424.47 420.75 425.17 420.45C425.78 420.25 426.28 419.84 426.78 419.34C427.17 418.95 427.47 418.34 427.88 417.84C427.97 417.75 428.08 417.64 428.17 417.64C429.28 417.84 429.97 417.05 430.88 416.75C431.98 416.45 432.98 416.05 433.67 415.05C433.69 415.04 433.76 414.96 433.78 414.95C434.78 414.55 435.88 414.05 436.88 413.75C437.88 413.44 438.58 413.05 439.19 412.34C439.48 412.05 440.19 412.05 440.88 411.84C440.88 408.94 440.88 405.94 440.88 402.74C441.88 402.64 442.69 402.64 443.69 402.53C443.69 403.94 443.69 405.14 443.69 406.44C443.69 407.94 443.69 409.44 443.69 411.04C443.69 411.34 444.08 411.94 444.19 411.94C445.58 411.64 446.39 412.94 447.49 413.34C448.69 413.75 449.39 414.84 450.78 414.94C451.49 414.94 452.19 415.64 452.89 416.05C454.08 416.75 455.19 417.64 456.78 417.75C457.39 417.84 457.89 418.64 458.49 419.05C458.69 419.25 458.99 419.44 459.19 419.55C460.8 419.84 461.39 420.55 461.49 422.14C461.5 424.25 461.59 424.35 463.8 424.35C473.3 424.35 482.91 424.35 492.41 424.35C494.3 424.35 494.3 424.35 494.3 426.35C494.31 442.25 494.31 458.26 494.31 474.16C494.31 474.46 494.22 474.86 494.31 475.07C494.42 475.46 494.81 475.77 495.01 476.07C495.22 475.77 495.72 475.46 495.72 475.07C495.81 472.96 495.92 470.86 495.72 468.86C495.61 467.57 496.31 466.86 497.01 465.96C497.31 465.66 497.61 465.16 497.61 464.76C497.72 463.05 497.61 461.35 497.61 459.55C499.61 459.96 499.91 458.55 500.51 457.35C501.01 456.35 501.91 455.66 502.72 454.85C503.02 454.55 503.41 454.16 503.81 453.96C504.81 453.75 505.61 454.46 506.11 455.66C506.42 456.46 506.72 457.46 507.72 457.76C507.92 457.76 507.92 458.16 508.11 458.35C508.72 458.96 509.02 459.96 510.22 459.66C510.92 459.46 511.11 459.96 511.11 460.55C511.11 461.76 511.11 462.96 511.11 464.16C511.12 466.35 511.42 466.66 513.62 467.26C513.62 469.76 513.62 472.26 513.62 474.76C513.62 476.76 513.62 476.76 515.62 477.57C515.62 510.88 515.63 544.4 515.63 577.81C515.73 577.81 515.84 577.9 516.04 577.9C516.13 577.7 516.34 577.51 516.34 577.31C516.43 576.9 516.34 576.4 516.34 576.01C516.34 550.49 516.33 524.98 516.33 499.48C516.33 497.77 516.33 497.77 518.12 497.77C523.13 497.77 528.23 497.77 533.23 497.77C535.44 497.77 536.03 497.17 536.03 494.96C536.03 484.26 536.03 473.66 536.03 462.96C536.03 462.26 536.13 461.55 536.13 460.65C536.72 460.65 537.22 460.65 537.73 460.65C550.24 460.65 562.64 460.65 575.14 460.65C577.05 460.65 577.05 460.65 577.05 462.54C577.05 479.56 577.05 496.56 577.05 513.67C577.06 522.48 577.06 531.28 577.06 540.08C577.06 540.58 577.06 540.98 577.06 541.59C577.76 541.59 578.26 541.59 578.86 541.58C578.86 516.87 578.86 492.17 578.85 467.35C585.16 467.35 591.25 467.35 597.46 467.34C597.46 485.56 597.47 503.67 597.47 521.97C601.86 521.97 606.17 521.97 610.67 521.97C610.67 521.47 610.67 521.08 610.67 520.58C610.67 509.17 610.66 497.76 610.66 486.36C610.66 485.95 610.66 485.45 610.66 485.06C610.66 484.25 611.07 483.95 611.86 483.95C627.57 483.95 643.38 483.95 659.08 483.95C659.29 483.95 659.58 483.95 659.99 484.05C659.99 489.85 659.99 495.66 659.99 501.66C663.89 501.66 667.49 501.66 671.19 501.66C671.3 502.55 671.3 503.36 671.3 504.05C671.3 525.57 671.3 547.18 671.3 568.68C671.3 570.79 671.7 571.19 673.8 571.18C676 571.18 676 571.18 676 568.99C676 554.98 676 540.97 676 527.07C676 524.97 676 524.97 678 524.96C683 524.96 687.91 524.96 692.91 524.96C694.71 524.96 694.71 524.96 694.71 526.86C694.71 531.87 694.71 536.77 694.71 541.77C694.71 543.57 695.41 544.37 697.21 544.37C698.41 544.37 699.61 544.37 700.81 544.37C702.91 544.37 703.52 543.77 703.61 541.77C703.61 540.96 703.91 540.66 704.71 540.77C706.31 540.77 707.91 540.77 709.52 540.77C710.32 540.77 710.52 541.07 710.61 541.87C710.72 543.87 711.32 544.46 713.32 544.46C715.91 544.46 718.63 544.46 721.22 544.46C722.42 544.46 723.32 543.57 723.32 542.37C723.32 537.76 723.32 533.07 723.32 528.46C723.32 527.96 723.32 527.46 723.32 526.96C724.02 526.96 724.72 526.96 725.41 526.96C725.41 527.76 725.41 528.57 725.42 529.35C725.42 533.66 725.42 537.96 725.42 542.27C725.42 543.57 726.32 544.46 727.63 544.46C728.83 544.46 729.72 543.57 729.72 542.17C729.72 534.57 729.72 526.96 729.72 519.35C729.72 519.15 729.63 518.85 729.72 518.65C729.93 518.26 730.22 517.76 730.43 517.35C730.63 517.76 731.13 518.26 731.13 518.65C731.13 526.46 731.13 534.26 731.13 542.07C731.13 543.76 731.72 544.37 733.43 544.46C737.83 544.46 742.24 544.46 746.63 544.46C747.63 544.46 747.93 544.76 747.93 545.76C747.93 548.96 747.94 552.07 747.94 555.27C747.94 555.67 747.94 555.98 748.03 556.37C748.33 557.17 748.83 557.67 749.94 557.67C752.74 557.57 755.44 557.67 758.24 557.67C759.83 557.67 759.83 557.67 759.83 556.07C759.83 546.46 759.83 536.87 759.83 527.26C759.83 503.24 759.82 479.13 759.82 455.13C759.82 454.63 759.82 454.13 759.82 453.52C760.32 453.52 760.73 453.43 761.12 453.43C762.43 453.43 763.73 453.43 764.93 453.43C765.84 453.43 766.34 453.12 766.23 452.12C766.12 451.02 766.23 449.93 766.23 448.93C766.23 448.02 766.53 447.82 767.33 447.82C769.03 447.82 770.73 447.82 772.34 447.82C772.73 447.82 773.14 447.82 773.34 447.71C774.14 447.32 774.64 446.71 774.64 445.62C774.53 440.71 774.64 435.82 774.64 430.91C774.64 430.51 774.64 430.01 774.64 429.61C775.53 429.61 776.33 429.61 777.33 429.61C777.33 430.21 777.33 430.61 777.33 431.11C777.34 436.12 777.34 441.02 777.34 446.02C777.34 447.82 777.53 447.92 779.23 447.92C781.84 447.92 784.34 447.92 786.94 447.92C788.54 447.92 788.64 448.02 788.64 449.62C788.64 450.92 788.64 452.12 788.64 453.62C789.34 453.62 789.73 453.62 790.14 453.62C791.95 453.62 793.64 453.62 795.45 453.62C797.04 453.62 797.04 453.62 797.04 455.23C797.04 479.84 797.04 504.34 797.05 528.95C797.05 529.35 797.05 529.75 797.05 530.15C797.05 531.15 797.46 531.65 798.55 531.65C803.35 531.65 808.16 531.65 812.96 531.65C814.87 531.65 814.87 531.65 814.87 533.65C814.87 545.66 814.87 557.67 814.87 569.67C814.87 571.56 816.46 572.56 818.07 571.67C818.37 571.47 818.57 570.67 818.57 570.17C818.57 564.36 818.57 558.56 818.57 552.76C818.57 552.47 818.57 552.16 818.57 551.76C818.57 550.95 818.87 550.45 819.87 550.45C821.87 550.56 823.87 550.45 825.96 550.45C825.96 549.45 825.96 548.56 825.96 547.56C829.17 547.56 832.18 547.56 835.27 547.56C835.27 559.66 835.27 571.67 835.27 583.87C837.77 582.97 839.88 582.97 842.08 582.97C842.08 587.38 842.08 591.68 842.08 595.98C561.35 596.01 280.73 595.95 0 595.98C0 587.37 0 578.77 0 569.96Z" id="cBtcZUDQj"></path><path d="M747.34 709.79C748.96 707.26 748.96 705.99 747.34 705.99C744.83 705.99 744.83 709.79 747.34 709.79C747.34 709.79 747.34 709.79 747.34 709.79Z" id="ffBfmla4"></path><path d="M747.34 709.79C748.96 707.26 748.96 705.99 747.34 705.99C744.83 705.99 744.83 709.79 747.34 709.79C747.34 709.79 747.34 709.79 747.34 709.79Z" id="ejnFZ9KVA"></path><path d="M747.34 709.79C748.96 707.26 748.96 705.99 747.34 705.99C744.83 705.99 744.83 709.79 747.34 709.79C747.34 709.79 747.34 709.79 747.34 709.79Z" id="aaCtnoDzW"></path><path d="M747.34 709.79C748.96 707.26 748.96 705.99 747.34 705.99C744.83 705.99 744.83 709.79 747.34 709.79C747.34 709.79 747.34 709.79 747.34 709.79Z" id="b1MIio6S5V"></path><path d="M209.36 245.7L209.36 245.7" id="h62QdstFV8"></path><path d="M209.36 245.7L209.36 245.7" id="b1pV8mpr7"></path><path d="M209.36 245.7L209.36 245.7" id="e3qaTNxm2"></path><path d="M209.36 245.7L209.36 245.7" id="dpZ0gbTUR"></path></defs><g><g><g><use xlink:href="#kTmxbZYm4" opacity="1" fill="#ffffff" fill-opacity="1"></use><g><use xlink:href="#kTmxbZYm4" opacity="1" fill-opacity="0" stroke="#000000" stroke-width="1" stroke-opacity="0"></use></g></g><g><use xlink:href="#b4bw0rMTQ" opacity="1" fill="#000000" fill-opacity="0"></use><g><use xlink:href="#b4bw0rMTQ" opacity="1" fill-opacity="0" stroke="#000000" stroke-width="1" stroke-opacity="0"></use></g></g><g><use xlink:href="#d5gNhWHmA0" opacity="1" fill="#ffffff" fill-opacity="1"></use><g><use xlink:href="#d5gNhWHmA0" opacity="1" fill-opacity="0" stroke="#000000" stroke-width="1" stroke-opacity="0"></use></g></g><g><use xlink:href="#bd8K0LNDc" opacity="1" fill="#000000" fill-opacity="0"></use><g><use xlink:href="#bd8K0LNDc" opacity="1" fill-opacity="0" stroke="#000000" stroke-width="1" stroke-opacity="0"></use></g></g><g><use xlink:href="#cBtcZUDQj" opacity="1" fill="#000000" fill-opacity="1"></use><g><use xlink:href="#cBtcZUDQj" opacity="1" fill-opacity="0" stroke="#000000" stroke-width="1" stroke-opacity="0"></use></g></g><g><use xlink:href="#ffBfmla4" opacity="1" fill="#ffffff" fill-opacity="1"></use><g><use xlink:href="#ffBfmla4" opacity="1" fill-opacity="0" stroke="#000000" stroke-width="1" stroke-opacity="0"></use></g></g><g><use xlink:href="#ejnFZ9KVA" opacity="1" fill="#000000" fill-opacity="0"></use><g><use xlink:href="#ejnFZ9KVA" opacity="1" fill-opacity="0" stroke="#000000" stroke-width="1" stroke-opacity="0"></use></g></g><g><use xlink:href="#aaCtnoDzW" opacity="1" fill="#000000" fill-opacity="0"></use><g><use xlink:href="#aaCtnoDzW" opacity="1" fill-opacity="0" stroke="#000000" stroke-width="1" stroke-opacity="0"></use></g></g><g><use xlink:href="#b1MIio6S5V" opacity="1" fill="#000000" fill-opacity="0"></use><g><use xlink:href="#b1MIio6S5V" opacity="1" fill-opacity="0" stroke="#000000" stroke-width="1" stroke-opacity="0"></use></g></g><g><use xlink:href="#h62QdstFV8" opacity="1" fill="#ffffff" fill-opacity="1"></use><g><use xlink:href="#h62QdstFV8" opacity="1" fill-opacity="0" stroke="#000000" stroke-width="1" stroke-opacity="0"></use></g></g><g><use xlink:href="#b1pV8mpr7" opacity="1" fill="#000000" fill-opacity="0"></use><g><use xlink:href="#b1pV8mpr7" opacity="1" fill-opacity="0" stroke="#000000" stroke-width="1" stroke-opacity="0"></use></g></g><g><use xlink:href="#e3qaTNxm2" opacity="1" fill="#000000" fill-opacity="0"></use><g><use xlink:href="#e3qaTNxm2" opacity="1" fill-opacity="0" stroke="#000000" stroke-width="1" stroke-opacity="0"></use></g></g><g><use xlink:href="#dpZ0gbTUR" opacity="1" fill="#000000" fill-opacity="0"></use><g><use xlink:href="#dpZ0gbTUR" opacity="1" fill-opacity="0" stroke="#000000" stroke-width="1" stroke-opacity="0"></use></g></g></g></g></svg>