<?xml version="1.0" encoding="utf-8"?>
<!-- Generator: Adobe Illustrator 21.1.0, SVG Export Plug-In . SVG Version: 6.00 Build 0)  -->
<svg version="1.1" id="Layer_1" xmlns="http://www.w3.org/2000/svg" xmlns:xlink="http://www.w3.org/1999/xlink" x="0px" y="0px"
	 viewBox="0 0 841.9 595.3" style="enable-background:new 0 0 841.9 595.3;" xml:space="preserve">
<style type="text/css">
	.st0{fill:#FFFFFF;}
</style>
<path d="M676.7,948.7"/>
<g>
	<g>
		<path class="st0" d="M647.5,406.4c3.2,0,3.2-5,0-5S644.3,406.4,647.5,406.4L647.5,406.4z"/>
	</g>
</g>
<g>
	<g>
		<path class="st0" d="M719.4,388.8c3.2,0,3.2-5,0-5C716.1,383.8,716.1,388.8,719.4,388.8L719.4,388.8z"/>
	</g>
</g>
<g>
	<g>
		<path class="st0" d="M470.3,265.3c3.2,0,3.2-5,0-5C467,260.3,467,265.3,470.3,265.3L470.3,265.3z"/>
	</g>
</g>
<g>
	<g>
		<path class="st0" d="M804.1,186.7c3.2,0,3.2-5,0-5C800.9,181.7,800.9,186.7,804.1,186.7L804.1,186.7z"/>
	</g>
</g>
<g>
	<g>
		<path class="st0" d="M776.9,253c3.2,0,3.2-5,0-5C773.6,248,773.6,253,776.9,253L776.9,253z"/>
	</g>
</g>
<g>
	<g>
		<path class="st0" d="M23,308.9c3.2,0,3.2-5,0-5S19.8,308.9,23,308.9L23,308.9z"/>
	</g>
</g>
<g>
	<g>
		<path class="st0" d="M83.7,331.3c3.2,0,3.2-5,0-5S80.5,331.3,83.7,331.3L83.7,331.3z"/>
	</g>
</g>
<g>
	<g>
		<path class="st0" d="M42.2,395.2c3.2,0,3.2-5,0-5S39,395.2,42.2,395.2L42.2,395.2z"/>
	</g>
</g>
<g>
	<g>
		<path class="st0" d="M99.7,415.9c3.2,0,3.2-5,0-5S96.5,415.9,99.7,415.9L99.7,415.9z"/>
	</g>
</g>
<g>
	<g>
		<path class="st0" d="M245,94.9c3.2,0,3.2-5,0-5S241.8,94.9,245,94.9L245,94.9z"/>
	</g>
</g>
<g>
	<g>
		<path class="st0" d="M275.4,138c3.2,0,3.2-5,0-5C272.1,133,272.1,138,275.4,138L275.4,138z"/>
	</g>
</g>
<g>
	<g>
		<path class="st0" d="M614,66.2c3.2,0,3.2-5,0-5C610.7,61.2,610.7,66.2,614,66.2L614,66.2z"/>
	</g>
</g>
<g>
	<g>
		<path class="st0" d="M330.5,201.9c3.2,0,3.2-5,0-5S327.3,201.9,330.5,201.9L330.5,201.9z"/>
	</g>
</g>
<g>
	<g>
		<path class="st0" d="M308.9,331.3c3.2,0,3.2-5,0-5C305.7,326.3,305.7,331.3,308.9,331.3L308.9,331.3z"/>
	</g>
</g>
<g>
	<g>
		<path class="st0" d="M387.2,360c3.2,0,3.2-5,0-5C383.9,355,383.9,360,387.2,360L387.2,360z"/>
	</g>
</g>
<g>
	<g>
		<path class="st0" d="M513.3,395.2c3.2,0,3.2-5,0-5C510.1,390.2,510.1,395.2,513.3,395.2L513.3,395.2z"/>
	</g>
</g>
<g>
	<g>
		<path class="st0" d="M740.1,23c3.2,0,3.2-5,0-5C736.9,18,736.9,23,740.1,23L740.1,23z"/>
	</g>
</g>
<g>
	<g>
		<path class="st0" d="M182.7,26.2c3.2,0,3.2-5,0-5S179.5,26.2,182.7,26.2L182.7,26.2z"/>
	</g>
</g>
</svg>
