<?xml version="1.0" encoding="utf-8"?>
<!-- Generator: Adobe Illustrator 21.1.0, SVG Export Plug-In . SVG Version: 6.00 Build 0)  -->
<svg version="1.1" id="Layer_1" xmlns="http://www.w3.org/2000/svg" xmlns:xlink="http://www.w3.org/1999/xlink" x="0px" y="0px"
	 viewBox="0 0 841.9 595.3" style="enable-background:new 0 0 841.9 595.3;" xml:space="preserve">
<style type="text/css">
	.st0{opacity:0.47;fill:#FEF3AA;enable-background:new    ;}
	.st1{fill:#FEF7BF;}
	.st2{fill:#253A79;}
	.st3{enable-background:new    ;}
</style>
<polygon class="st0" points="30.7,136.3 191.5,97.3 278.6,575.4 "/>
<circle class="st1" cx="109.8" cy="111.5" r="82.9"/>
<path class="st2" d="M135.4,74.4c-0.2-0.9-0.6-2.3-1.3-3.9c-0.3-0.8-1.4-3.4-3-5.3c-2.3-2.7-5.4-3.5-8.7-4.4
	c-2.7-0.7-6.9-1.8-12.2-0.6c-2.1,0.5-6.2,1.4-9.6,4.9c-1.7,1.8-2.8,4.2-5,9c-1.1,2.3-2,4.4-2.4,6.7c-0.1,0.3-0.2,1-0.4,1.8
	c-0.6,1.8-1.3,3-1.9,4c-1.4,2.3-2.1,3.5-2.7,3.6c-1,0.1-1.3-0.8-3.4-1.7c-0.5-0.2-0.9-0.3-2.5-0.6C79,87.3,77.5,87,76.2,87
	c-1.5,0-3,0.5-6.1,1.5c-2.8,0.9-4.4,1.4-6.4,2.5s-3.2,2-5.3,3.7c-2.7,2.1-3.1,2.8-3.3,3.5c-0.4,1.4,0,2.6,0.6,4.3
	c0.6,1.7,1,2,3.1,5.5c1.8,3.1,2.1,4,3.5,5.3c0.2,0.2,0.4,0.3,2.2,1.8c2.6,2,3.9,3.1,4.9,3.9c2.8,2.2,4.1,3.2,5.7,4.5
	c5.4,4.3,5.3,4.4,6.1,4.7c0.7,0.3,2.1,0.7,3.3,2c0.4,0.5,0.7,0.9,1.2,1.8c0.6,1.1,1.1,2,2.2,4.5c1,2.1,1.1,2.4,1.6,3.5
	c0.7,1.4,1,2.1,1.4,2.7c0.3,0.4,1.5,2.2,3.5,3.5c0.7,0.5,1.8,1,5.8,1.7c2.7,0.5,5.7,0.8,9.2,0.9c0.9,0,3.2,0.1,6.3,0
	c5.7-0.2,9.4-0.8,10.5-1c3.8-0.7,5.1-1.4,5.8-1.7c2-1.1,3.2-2.4,4.2-3.6c2.7-3.1,3.9-6.2,4.2-7.1c0.6-1.7,0.8-4,1.2-8.4
	c0.4-5.1,0.6-7.6,0.5-10.1c-0.3-4.1-1.2-7.4-0.6-7.6c0.3-0.1,0.5,0.5,1.9,1.9c1,1,1.6,1.7,2.6,2.1c0.3,0.2,2.3,1.1,3.1,0.3
	c0.9-0.7,0.2-2.8-0.1-4c-1-3.2-2.8-5.2-3.1-5.7c-2.3-2.7-5.9-7.2-7.6-9.6c-0.2-0.3-0.5-0.8-0.8-1.6c-0.5-1.4-0.4-2.6-0.3-3
	c0.3-4-0.6-9.8-0.7-10.7C136.1,76.9,135.7,75.3,135.4,74.4z"/>
<polygon class="st1" points="105.2,84.6 106.6,83.5 108.5,82.5 112.2,81.1 115.6,80.4 117.7,81.1 120.5,82 122.5,82.5 125.4,84.6 
	124.6,86.2 125.4,87.7 127.1,91.2 129.6,95.9 130.5,97.8 131.1,99.5 130.1,100.7 127.1,102.2 123.9,103 120.6,103.7 116.8,103.7 
	111.1,103.7 107.1,103.2 103.5,101.8 100.5,100.6 98.2,98.8 99.9,95 102,92.1 103.9,88.7 106,86 "/>
<path class="st2" d="M93.8,140.8c-0.2,0.4-0.8,1.5-1.9,2.8c-1.2,1.4-2.5,2.6-3.6,3.7c-0.7,0.8-1.2,1.5-1.4,1.7l0,0
	c0,0.2,1.1,0.6,2,0.8c0.7,0.2,1.6,0.3,1.6,0.3c1,0.4,1.4,0.8,1.6,1.2c0.2,0.6-0.1,1,0.2,1.7c0.2,0.6,0.8,1.4,1.4,1.4
	c0.7,0,0.8-1.2,2-1.7c0.7-0.3,1.5-0.2,1.9-0.2c1.2,0.2,1.5,0.8,2.2,0.6s1.3-1,1.4-1.7c0.2-1.3-1.1-2.8-1.1-2.8
	c-0.5-0.9-1.1-2.1-0.6-2.8c0.6-0.8,2.5-0.4,3.4-0.2c6.2,1.3,8-1.4,16.3-0.2c1.6,0.2,5.6,0.9,5.8,2.3c0.1,0.6-0.6,0.8-1.6,2.8
	c-0.1,0.2-0.7,1.5-0.9,3.3c-0.1,0.8-0.2,1.5,0.2,1.7c0.4,0.2,0.8-0.3,2-0.8c0.9-0.4,1.6-0.6,2.3-0.5c1.2,0.3,1.2,1.3,2.6,1.7
	c0.2,0.1,1.1,0.3,1.6-0.2c0.3-0.3,0.1-0.7,0.3-1.6c0-0.1,0.3-1.1,1.2-1.7c0.6-0.4,0.9-0.2,1.9-0.6c0.7-0.3,1.3-0.6,1.4-1.1
	c0.2-0.6-0.5-1.3-1.2-2c-0.9-0.9-1.6-1.3-2.5-1.9c-0.8-0.6-1.4-1.1-2.6-2.3c-2.5-2.4-4.9-5.9-5.6-6.8
	C118.1,130.6,96.8,135.8,93.8,140.8z"/>
<path d="M676.7,948.7"/>
<g class="st3">
	<path class="st1" d="M424.5,176.1h11.7c5.9,0,8.8,2.6,8.8,7.7c0,1.2-0.2,2.5-0.5,3.9l-1.7,7.9c-1.2,5.7-4.6,9.4-10.1,11
		c-1.3,0.4-3.1,0.6-5.4,0.6h-0.6l-4.8,22.6H413L424.5,176.1z M431.6,184.7l-3,14h1.1c1,0,1.6-0.1,1.9-0.2c1.2-0.4,2-1.4,2.3-2.9
		l1.7-7.9c0.1-0.4,0.1-0.8,0.1-1.1c0-1.3-0.7-2-2.1-2L431.6,184.7L431.6,184.7z"/>
	<path class="st1" d="M452.7,176.1h21.1l-1.8,8.6h-12.1l-3,14h10.4l-1.8,8.6H455l-3,14h12.1l-1.8,8.6h-21.1L452.7,176.1z"/>
	<path class="st1" d="M479.4,176.1h8.8l0.3,26.5l5.6-26.5h8.4l-11.4,53.8h-8.8l-0.2-25.8l-5.5,25.8H468L479.4,176.1z"/>
	<path class="st1" d="M509.5,176.1h8.8l0.3,26.5l5.6-26.5h8.4l-11.4,53.8h-8.8l-0.2-25.8l-5.5,25.8h-8.6L509.5,176.1z"/>
	<path class="st1" d="M555,210.6l-1.5,19.3h-9l0.9-11.2h-6.6l-3.9,11.2h-9l6.6-19.2l12.8-34.6h11.6L555,210.6z M546,210.1l1.3-16.3
		l-5.6,16.3H546z"/>
	<path class="st1" d="M569.4,176.1h11.7c5.9,0,8.8,2.6,8.8,7.7c0,1.2-0.2,2.5-0.5,3.9l-1.7,7.9c-1.2,5.7-4.6,9.4-10.1,11
		c-1.3,0.4-3.1,0.6-5.4,0.6h-0.6l-4.8,22.6H558L569.4,176.1z M576.5,184.7l-3,14h1.1c1,0,1.6-0.1,1.9-0.2c1.2-0.4,2-1.4,2.3-2.9
		l1.7-7.9c0.1-0.4,0.1-0.8,0.1-1.1c0-1.3-0.7-2-2.1-2L576.5,184.7L576.5,184.7z"/>
	<path class="st1" d="M597.6,176.1h11.7c5.9,0,8.8,2.6,8.8,7.7c0,1.2-0.2,2.5-0.5,3.9l-1.7,7.9c-1.2,5.7-4.6,9.4-10.1,11
		c-1.3,0.4-3.1,0.6-5.4,0.6h-0.6l-4.8,22.6h-8.9L597.6,176.1z M604.7,184.7l-3,14h1.1c1,0,1.6-0.1,1.9-0.2c1.2-0.4,2-1.4,2.3-2.9
		l1.7-7.9c0.1-0.4,0.1-0.8,0.1-1.1c0-1.3-0.7-2-2.1-2L604.7,184.7L604.7,184.7z"/>
	<path class="st1" d="M623,186.9c1.6-7.7,6.3-11.6,14-11.6c6.4,0,9.6,2.6,9.6,7.9c0,1.1-0.1,2.3-0.4,3.7l-1.6,7.6h-8.9l1.6-7.6
		c0.1-0.4,0.1-0.8,0.1-1.1c0-1.3-0.7-1.9-2.1-2h-0.1c-1.7,0-2.8,1-3.2,3l-1,4.8c-0.1,0.2-0.1,0.5-0.1,0.7c0,2.1,1.7,4.6,5.2,7.5
		c3.3,2.8,5,6,5,9.7c0,0.9-0.1,1.9-0.3,2.8l-1.4,6.7c-1.6,7.8-6.3,11.6-14,11.6c-6.4,0-9.6-2.7-9.6-7.9c0-1.1,0.1-2.3,0.4-3.7
		l1.6-7.6h8.9l-1.6,7.6c-0.1,0.4-0.1,0.8-0.1,1.1c0,1.3,0.7,2,2.1,2c1.8,0,2.8-1,3.3-3l1.3-6c0.1-0.3,0.1-0.5,0.1-0.8
		c0-2.2-1.7-4.8-5.2-7.7c-3.3-2.8-5-6-5-9.8c0-1,0.1-2,0.3-3L623,186.9z"/>
	<path class="st1" d="M675.1,176.1l1.2,15.4l7.7-15.4h9L678.4,203l3.2,26.9h-9l-0.8-17.1l-8.1,17.1h-9l14.6-26.9l-3.2-26.9H675.1z"
		/>
	<path class="st1" d="M703.3,229.9h-11.6l1.9-34.5l1.5-19.2h9l-4.2,42.1l13.7-42.1h9l-6.6,19.3L703.3,229.9z"/>
	<path class="st1" d="M727.4,176.1h8.9l-11.4,53.8H716L727.4,176.1z"/>
	<path class="st1" d="M743.6,176.1h8.9l-11.4,53.8h-8.9L743.6,176.1z"/>
	<path class="st1" d="M759.8,176.1h8.9l-11.4,53.8h-8.9L759.8,176.1z"/>
</g>
<g class="st3">
	<path class="st1" d="M595.6,248.9c0.5-2.5,2.1-3.8,4.6-3.8c2.1,0,3.1,0.9,3.1,2.6c0,0.4,0,0.8-0.1,1.2l-0.5,2.5h-2.9l0.5-2.5
		c0-0.1,0-0.2,0-0.4c0-0.4-0.2-0.6-0.7-0.6l0,0c-0.6,0-0.9,0.3-1.1,1l-0.3,1.6c0,0.1,0,0.2,0,0.2c0,0.7,0.6,1.5,1.7,2.5
		c1.1,0.9,1.6,2,1.6,3.2c0,0.3,0,0.6-0.1,0.9l-0.5,2.2c-0.5,2.5-2.1,3.8-4.6,3.8c-2.1,0-3.1-0.9-3.1-2.6c0-0.4,0-0.8,0.1-1.2
		l0.5-2.5h2.9l-0.5,2.5c0,0.1,0,0.2,0,0.4c0,0.4,0.2,0.6,0.7,0.6c0.6,0,0.9-0.3,1.1-1l0.4-2c0-0.1,0-0.2,0-0.3
		c0-0.7-0.6-1.6-1.7-2.5c-1.1-0.9-1.6-2-1.6-3.2c0-0.3,0-0.6,0.1-1L595.6,248.9z"/>
	<path class="st1" d="M606.1,245.4h6.9l-0.6,2.8h-4l-1,4.6h3.4l-0.6,2.8h-3.4l-1,4.6h4l-0.6,2.8h-6.9L606.1,245.4z"/>
	<path class="st1" d="M614.8,245.4h3.8c1.9,0,2.9,0.8,2.9,2.5c0,0.4,0,0.8-0.1,1.3l-0.5,2.6c-0.4,1.9-1.5,3.1-3.3,3.6
		c-0.4,0.1-1,0.2-1.8,0.2h-0.2L614,263h-2.9L614.8,245.4z M617.1,248.2l-1,4.6h0.4c0.3,0,0.5,0,0.6-0.1c0.4-0.1,0.7-0.5,0.8-0.9
		l0.5-2.6c0-0.1,0-0.2,0-0.4c0-0.4-0.2-0.7-0.7-0.7L617.1,248.2L617.1,248.2z"/>
	<path class="st1" d="M630.9,245.4l-0.6,2.8H628l-3.1,14.8H622l3.1-14.8h-2.3l0.6-2.8H630.9z"/>
	<path class="st1" d="M632.5,245.4h6.9l-0.6,2.8h-4l-1,4.6h3.4l-0.6,2.8h-3.4l-1,4.6h4l-0.6,2.8h-6.9L632.5,245.4z"/>
	<path class="st1" d="M644.4,257l5.2-11.7h2.9l-3.7,17.6H646l1.7-8.1l-3.4,8.1h-2.1l-0.1-8.1l-1.7,8.1h-2.8l3.7-17.6h2.9L644.4,257z
		"/>
	<path class="st1" d="M654.7,245.4h4.1c1.9,0,2.9,0.8,2.9,2.5c0,0.4,0,0.8-0.1,1.3l-0.5,2.6c-0.3,1.2-0.8,2-1.7,2.4
		c0.5,0.3,0.8,0.8,0.8,1.5c0,0.3,0,0.6-0.1,0.9l-0.5,2.6c-0.5,2.5-2,3.8-4.5,3.8H651L654.7,245.4z M655.5,255.6l-1,4.6h0.9
		c0.6,0,0.9-0.3,1.1-1l0.5-2.6c0-0.1,0-0.2,0-0.3c0-0.3-0.1-0.5-0.4-0.6c-0.1,0-0.3-0.1-0.6-0.1H655.5z M657.1,248.2l-1,4.6h0.6
		c0.3,0,0.5,0,0.6-0.1c0.4-0.1,0.7-0.5,0.8-0.9l0.5-2.6c0-0.1,0-0.2,0-0.4c0-0.4-0.2-0.7-0.7-0.7L657.1,248.2L657.1,248.2z"/>
	<path class="st1" d="M664.4,245.4h6.9l-0.6,2.8h-4l-1,4.6h3.4l-0.6,2.8h-3.4l-1,4.6h4l-0.6,2.8h-6.9L664.4,245.4z"/>
	<path class="st1" d="M673.1,245.4h3.8c1.9,0,2.9,0.8,2.9,2.5c0,0.4,0,0.8-0.1,1.3l-0.5,2.6c-0.3,1.6-1.2,2.6-2.6,3.1l1.1,8.1h-3.2
		l-0.4-7.6h-0.2l-1.6,7.6h-2.9L673.1,245.4z M675.4,248.2l-1,4.6h0.4c0.3,0,0.5,0,0.6-0.1c0.4-0.1,0.7-0.5,0.8-0.9l0.5-2.6
		c0-0.1,0-0.2,0-0.4c0-0.4-0.2-0.7-0.7-0.7L675.4,248.2L675.4,248.2z"/>
	<path class="st1" d="M686.6,248.2l0.6-2.8h7.8l-0.4,2l-6.8,15.6h-3l6.5-14.8H686.6z"/>
	<path class="st1" d="M694.2,255.6l0.5-2.4h6.5l-0.5,2.4H694.2z"/>
	<path class="st1" d="M703.7,248.9c0.5-2.5,2.1-3.8,4.6-3.8c2.1,0,3.1,0.9,3.1,2.6c0,0.4,0,0.8-0.1,1.2l-2.2,10.5
		c-0.5,2.5-2.1,3.8-4.6,3.8c-2.1,0-3.1-0.9-3.1-2.6c0-0.4,0-0.8,0.1-1.2l0.5-2.5h2.9l-0.5,2.5c0,0.1,0,0.2,0,0.4
		c0,0.4,0.2,0.6,0.7,0.6l0,0c0.6,0,0.9-0.3,1.1-1l0.8-3.7c-0.3,0.2-0.8,0.4-1.6,0.4c-0.1,0-0.2,0-0.4,0c-0.8-0.1-1.4-0.4-1.8-0.9
		c-0.2-0.3-0.3-0.8-0.3-1.3c0-0.4,0.1-0.9,0.2-1.5L703.7,248.9z M708.4,248.9c0-0.1,0-0.2,0-0.4c0-0.4-0.2-0.6-0.7-0.6
		c-0.6,0-0.9,0.3-1.1,1l-0.7,3.4c0,0.2-0.1,0.4-0.1,0.5c0,0.2,0,0.3,0.1,0.4c0.1,0,0.3,0.1,0.5,0.1c0.1,0,0.1,0,0.2,0
		c0.5,0,0.7-0.3,0.9-1L708.4,248.9z"/>
	<path class="st1" d="M711.2,259.8h3.5l-0.6,2.7l-1.7,3.4h-2l1.1-2.9h-1L711.2,259.8z"/>
	<path class="st1" d="M721.5,259.1c0.3-1.6,1.4-3,3.3-4.1c1.7-1.1,2.7-2,2.8-2.7l0.7-3.4c0-0.1,0-0.2,0-0.4c0-0.4-0.2-0.6-0.7-0.6
		l0,0c-0.6,0-0.9,0.3-1.1,1l-0.5,2.5h-2.9l0.5-2.5c0.5-2.5,2.1-3.8,4.6-3.8c2.1,0,3.1,0.9,3.1,2.6c0,0.4,0,0.8-0.1,1.2l-0.7,3.4
		c-0.4,1.6-1.5,3-3.3,4.2c-1.7,1.1-2.7,2-2.8,2.8l-0.2,0.9h4.7l-0.6,2.8h-7.6L721.5,259.1z"/>
	<path class="st1" d="M738.8,259.4c-0.5,2.5-2.1,3.8-4.6,3.8c-2.1,0-3.1-0.9-3.1-2.6c0-0.4,0-0.8,0.1-1.2l2.2-10.5
		c0.5-2.5,2.1-3.8,4.6-3.8c2.1,0,3.1,0.9,3.1,2.6c0,0.4,0,0.8-0.1,1.2L738.8,259.4z M738.1,248.9c0-0.1,0-0.2,0-0.4
		c0-0.4-0.2-0.6-0.7-0.6l0,0c-0.6,0-0.9,0.3-1.1,1l-2.2,10.5c0,0.1,0,0.2,0,0.4c0,0.4,0.2,0.6,0.7,0.6c0.6,0,0.9-0.3,1.1-1
		L738.1,248.9z"/>
	<path class="st1" d="M749.2,245.4l-3.1,14.8h2.3l-0.6,2.8h-7.6l0.6-2.8h2.3l2.5-12h-2.3l0.6-2.8L749.2,245.4L749.2,245.4z"/>
	<path class="st1" d="M751.5,256.5c0.3-1.2,0.8-2,1.7-2.4c-0.5-0.3-0.8-0.8-0.8-1.5c0-0.3,0-0.6,0.1-0.9l0.6-2.8
		c0.5-2.5,2.1-3.8,4.6-3.8c2.1,0,3.1,0.9,3.1,2.6c0,0.4,0,0.8-0.1,1.2l-0.6,2.8c-0.3,1.2-0.8,2-1.7,2.4c0.5,0.3,0.8,0.8,0.8,1.5
		c0,0.3,0,0.6-0.1,0.9l-0.6,2.9c-0.5,2.5-2.1,3.8-4.6,3.8c-2.1,0-3.1-0.9-3.1-2.6c0-0.4,0-0.8,0.1-1.2L751.5,256.5z M753.8,259.4
		c0,0.1,0,0.2,0,0.3c0,0.5,0.2,0.7,0.7,0.7c0.6,0,0.9-0.3,1.1-1l0.6-2.9c0-0.2,0.1-0.4,0.1-0.6c0-0.2,0-0.3-0.1-0.4
		s-0.3-0.1-0.6-0.1c-0.1,0-0.2,0-0.2,0c-0.5,0-0.8,0.4-0.9,1L753.8,259.4z M755.4,251.7c0,0.1,0,0.3,0,0.4c0,0.4,0.2,0.7,0.7,0.7
		c0.6,0,1-0.3,1.1-1l0.6-2.8c0-0.1,0-0.2,0-0.3c0-0.5-0.2-0.7-0.7-0.7c-0.6,0-0.9,0.3-1.1,1L755.4,251.7z"/>
</g>
<g class="st3">
	<path class="st1" d="M111.9,118.3h5.4c2.7,0,4.1,0.8,4.1,2.5c0,0.4-0.1,0.8-0.3,1.3l-0.8,2.6c-0.6,1.8-2.1,3.1-4.7,3.6
		c-0.6,0.2-1.4,0.2-2.5,0.2H113l-2.3,7.5h-4.1L111.9,118.3z M115.2,121.1l-1.3,4.6h0.5c0.4,0,0.8,0,0.9-0.1c0.6-0.2,0.9-0.5,1.1-0.9
		l0.8-2.6c0-0.2,0.1-0.3,0.1-0.3c0-0.4-0.3-0.7-1-0.7H115.2z"/>
</g>
</svg>
